<svg width="27" height="27" viewBox="0 0 27 27" fill="none" xmlns="http://www.w3.org/2000/svg">
<path d="M22.541 0H3.86859C1.73313 0 0 1.73313 0 3.86859V22.541C0 24.6764 1.73313 26.4096 3.86859 26.4096H22.541C24.6764 26.4096 26.4096 24.6764 26.4096 22.541V3.86859C26.4096 1.73313 24.6764 0 22.541 0ZM19.7401 13.1532L19.2759 15.4744H16.2997V24.8621H13.9785V15.4744H11.1415V13.1532H13.9785V8.5109C13.9785 6.80356 15.366 5.41603 17.0734 5.41603H19.9103V7.73718H16.2997V13.1532H19.7401ZM24.8621 22.541C24.8621 23.8202 23.8202 24.8621 22.541 24.8621H17.8471V17.0218H20.5448L21.628 11.6058H17.8471V9.28462H21.4578V3.86859H17.0734C14.5149 3.86859 12.4311 5.95247 12.4311 8.5109V11.6058H9.5941V17.0218H12.4311V24.8621H3.86859C2.58938 24.8621 1.54744 23.8202 1.54744 22.541V3.86859C1.54744 2.58938 2.58938 1.54744 3.86859 1.54744H22.541C23.8202 1.54744 24.8621 2.58938 24.8621 3.86859V22.541Z" fill="black"/>
</svg>
