<svg width="13" height="16" viewBox="0 0 13 16" fill="none" xmlns="http://www.w3.org/2000/svg">
<path d="M6.41509 0C2.87631 0 0 2.87631 0 6.41509C0 6.81761 0.0377358 7.22432 0.113208 7.61845C0.1174 7.64361 0.129979 7.71069 0.155136 7.83228C0.255765 8.26415 0.398323 8.69182 0.587002 9.09853C1.27883 10.7254 2.79665 13.2243 6.12998 15.8994C6.21384 15.9665 6.31446 16 6.41509 16C6.51572 16 6.61635 15.9665 6.70021 15.8994C10.0293 13.2243 11.5556 10.7254 12.2432 9.09853C12.4319 8.69182 12.5744 8.26834 12.6709 7.83228C12.696 7.71069 12.7128 7.63941 12.7128 7.61845C12.7883 7.22432 12.826 6.81761 12.826 6.41509C12.826 2.87631 9.94968 0 6.41509 0ZM11.8197 7.45912C11.8197 7.4675 11.8155 7.4717 11.8155 7.48008C11.8113 7.49685 11.8029 7.54717 11.7862 7.62264V7.63103C11.7023 8.00839 11.5765 8.37317 11.413 8.72537C11.4088 8.72956 11.4088 8.73375 11.4046 8.73794C10.7757 10.2222 9.40042 12.4906 6.4109 14.9644C3.41719 12.4906 2.04193 10.2264 1.41719 8.73794C1.413 8.73375 1.413 8.72956 1.4088 8.72537C1.24948 8.37736 1.12369 8.00839 1.03564 7.63103V7.62264C1.01467 7.54717 1.01048 7.49685 1.00629 7.48008C1.00629 7.4717 1.0021 7.4675 1.0021 7.45493C0.93501 7.11111 0.901467 6.75891 0.901467 6.40671C0.901467 3.37107 3.37526 0.897275 6.4109 0.897275C9.44654 0.897275 11.9203 3.37107 11.9203 6.40671C11.9203 6.7673 11.8868 7.1195 11.8197 7.45912Z" fill="white"/>
<path d="M6.41503 2.41113C4.17184 2.41113 2.34375 4.23922 2.34375 6.48241C2.34375 8.72559 4.17184 10.5537 6.41503 10.5537C8.65822 10.5537 10.4863 8.72559 10.4863 6.48241C10.4863 4.23922 8.65822 2.41113 6.41503 2.41113ZM6.41503 9.65222C4.6666 9.65222 3.24941 8.23083 3.24941 6.4866C3.24941 4.74237 4.67079 3.32099 6.41503 3.32099C8.15926 3.32099 9.58065 4.74237 9.58065 6.4866C9.58065 8.22664 8.15926 9.65222 6.41503 9.65222Z" fill="white"/>
</svg>
