<svg width="16" height="17" viewBox="0 0 16 17" fill="none" xmlns="http://www.w3.org/2000/svg">
<path d="M12.6363 9.91005C12.307 9.5681 11.9144 9.38657 11.4965 9.38657C11.0827 9.38657 10.6817 9.56388 10.3397 9.90583L9.27166 10.9697C9.183 10.9232 9.09435 10.8768 9.00991 10.8346C8.88749 10.7755 8.7735 10.7164 8.67641 10.6573C7.67588 10.024 6.76823 9.1966 5.89857 8.1243C5.47641 7.59237 5.19356 7.14066 4.9867 6.68472C5.26532 6.43143 5.51862 6.16968 5.77192 5.91639C5.8648 5.82351 5.96189 5.72219 6.05477 5.62931C6.764 4.92008 6.764 3.99976 6.05477 3.29053L5.13023 2.36599C5.02469 2.26045 4.91915 2.15491 4.81783 2.04515C4.61519 1.83406 4.40411 1.61876 4.18459 1.41612C3.8553 1.09106 3.46691 0.917969 3.05319 0.917969C2.63947 0.917969 2.24263 1.09106 1.9049 1.41612L1.89646 1.42457L0.748173 2.58551C0.313345 3.01612 0.0684898 3.54383 0.0136085 4.15596C-0.0666026 5.14383 0.22469 6.05992 0.444215 6.66362C0.993028 8.14119 1.8078 9.509 3.02786 10.9739C4.50543 12.7385 6.28696 14.1359 8.32179 15.1196C9.09857 15.4868 10.1371 15.9217 11.2938 15.9977C11.3656 16.0019 11.4374 16.0061 11.5049 16.0061C12.2859 16.0061 12.9403 15.7275 13.4553 15.1702C13.4595 15.1618 13.4637 15.1618 13.468 15.1533C13.6453 14.9422 13.8479 14.748 14.059 14.5412C14.2025 14.4019 14.3545 14.2583 14.498 14.1064C14.8316 13.7602 15.0089 13.3549 15.0089 12.937C15.0089 12.519 14.8316 12.118 14.4896 11.7802L12.6363 9.91005ZM13.8437 13.4647C13.8395 13.4647 13.8395 13.4689 13.8437 13.4647C13.7128 13.6082 13.5777 13.7349 13.43 13.8784C13.2104 14.0895 12.9867 14.309 12.7798 14.5539C12.4379 14.9169 12.0368 15.09 11.5091 15.09C11.4585 15.09 11.4036 15.09 11.3529 15.0858C10.3482 15.0225 9.41941 14.6298 8.71862 14.2963C6.80622 13.3718 5.13023 12.0589 3.73287 10.3913C2.58036 9.0024 1.81203 7.71902 1.30121 6.34277C0.988806 5.50267 0.870601 4.84831 0.92126 4.22773C0.955033 3.8309 1.10701 3.50583 1.38564 3.22298L2.53815 2.07048C2.70279 1.91427 2.8801 1.82984 3.05319 1.82984C3.26427 1.82984 3.43736 1.95649 3.54712 2.06625L3.55556 2.0747C3.76242 2.26889 3.95662 2.46731 4.16348 2.67839C4.26902 2.78815 4.37456 2.89369 4.48432 3.00768L5.40464 3.928C5.76348 4.28683 5.76348 4.61612 5.40464 4.97496C5.30754 5.07206 5.21044 5.16916 5.11335 5.26625C4.8305 5.55755 4.56031 5.82773 4.2648 6.08947C4.25635 6.09792 4.25213 6.09792 4.24791 6.10636C3.95662 6.39765 4.0115 6.6805 4.0706 6.8747L4.07904 6.90425C4.31968 7.48683 4.65741 8.03142 5.16823 8.68578L5.17245 8.69C6.10543 9.83829 7.08907 10.7333 8.16981 11.4172C8.30912 11.5058 8.44844 11.5776 8.58353 11.6451C8.70596 11.7042 8.81994 11.7634 8.91704 11.8225C8.9297 11.8309 8.94237 11.8393 8.95926 11.8478C9.07324 11.9069 9.183 11.9322 9.29276 11.9322C9.57139 11.9322 9.7487 11.7549 9.8078 11.7L10.9645 10.5433C11.0785 10.4293 11.26 10.29 11.4753 10.29C11.6864 10.29 11.8553 10.4209 11.9608 10.5349L13.8268 12.4008C14.1899 12.7512 14.1899 13.1058 13.8437 13.4647Z" fill="white"/>
<path d="M8.638 3.80168C9.52454 3.94944 10.3266 4.36738 10.9683 5.00907C11.61 5.65075 12.0237 6.45287 12.1757 7.33941C12.2137 7.56316 12.4037 7.71936 12.6232 7.71936C12.6485 7.71936 12.6739 7.71514 12.6992 7.71091C12.9483 7.6687 13.1129 7.43229 13.0749 7.18321C12.8934 6.11091 12.3868 5.13572 11.6142 4.36316C10.8417 3.5906 9.86649 3.084 8.7942 2.90247C8.54512 2.86025 8.31293 3.02912 8.26649 3.27397C8.22428 3.52305 8.3847 3.76368 8.638 3.80168Z" fill="white"/>
<path d="M15.9717 7.05661C15.672 5.29196 14.8403 3.68774 13.5654 2.41281C12.2904 1.13787 10.6862 0.306211 8.92156 0.00647448C8.6767 -0.0357419 8.44029 0.133124 8.39807 0.377978C8.35585 0.627055 8.52472 0.859245 8.7738 0.905683C10.3485 1.17165 11.7838 1.91888 12.9237 3.05872C14.0635 4.19856 14.8065 5.63391 15.0767 7.20858C15.1147 7.43233 15.3047 7.58853 15.5242 7.58853C15.5495 7.58853 15.5749 7.58431 15.6002 7.58009C15.8493 7.53787 16.0181 7.30146 15.9717 7.05661Z" fill="white"/>
</svg>
