<svg width="17" height="13" viewBox="0 0 17 13" fill="none" xmlns="http://www.w3.org/2000/svg">
<path d="M14.0466 0H1.95758C0.877393 0 0 0.877393 0 1.95758V10.2225C0 11.3026 0.877393 12.18 1.95758 12.18H14.0466C15.1267 12.18 16.0041 11.3026 16.0041 10.2225V1.96172C16.0041 0.881531 15.1267 0 14.0466 0ZM15.1102 10.2225C15.1102 10.8101 14.6342 11.2861 14.0466 11.2861H1.95758C1.36989 11.2861 0.893947 10.8101 0.893947 10.2225V1.96172C0.893947 1.37403 1.36989 0.898086 1.95758 0.898086H14.0466C14.6342 0.898086 15.1102 1.37403 15.1102 1.96172V10.2225Z" fill="white"/>
<path d="M10.0903 5.9847L14.0054 2.47513C14.1875 2.30959 14.2041 2.02816 14.0385 1.84192C13.873 1.65982 13.5915 1.64327 13.4053 1.80881L8.00851 6.65103L6.9573 5.71155C6.95316 5.70742 6.94902 5.70328 6.94902 5.70328C6.92419 5.67845 6.9035 5.66189 6.87453 5.6412L2.59103 1.80881C2.40479 1.64327 2.12336 1.65982 1.95782 1.84606C1.79227 2.0323 1.80882 2.31373 1.99506 2.47927L5.95575 6.01781L2.01162 9.70948C1.83366 9.87917 1.82124 10.1606 1.99093 10.3427C2.08198 10.4337 2.19786 10.4834 2.31788 10.4834C2.42548 10.4834 2.53723 10.442 2.62414 10.3634L6.62621 6.61792L7.71053 7.58636C7.79744 7.66086 7.90091 7.6981 8.00851 7.6981C8.11612 7.6981 8.22372 7.65672 8.3065 7.58222L9.42393 6.58067L13.4053 10.3634C13.4922 10.4462 13.604 10.4875 13.7116 10.4875C13.8316 10.4875 13.9475 10.442 14.0344 10.3468C14.2041 10.1689 14.1958 9.88331 14.0178 9.71362L10.0903 5.9847Z" fill="white"/>
</svg>
