<svg width="12" height="15" viewBox="0 0 12 15" fill="none" xmlns="http://www.w3.org/2000/svg">
<path d="M5.90303 8.12517H5.99728C6.84554 8.10996 7.5343 7.7981 8.04181 7.1972C9.15833 5.87751 8.97345 3.61464 8.9517 3.39787C8.8792 1.77773 8.14694 1.00189 7.54518 0.636786C7.09567 0.366763 6.57004 0.218441 5.9864 0.207031H5.93565C5.61302 0.207031 4.98226 0.260275 4.37688 0.625377C3.76424 0.986675 3.02473 1.76252 2.95223 3.39787C2.93048 3.61464 2.7456 5.87751 3.86212 7.1972C4.366 7.7981 5.05476 8.10996 5.90303 8.12517ZM3.72437 3.47393C3.72437 3.46632 3.72799 3.45491 3.72799 3.45111C3.82225 1.26811 5.30127 1.03612 5.93203 1.03612H5.96828C6.75129 1.05513 8.08169 1.38981 8.17231 3.45111C8.17231 3.45872 8.17231 3.47012 8.17594 3.47393C8.17956 3.49675 8.38257 5.56565 7.45818 6.65335C7.09205 7.08691 6.60629 7.29989 5.96465 7.30369H5.93565C5.29764 7.29608 4.80826 7.08311 4.44575 6.65335C3.52499 5.56946 3.72074 3.49294 3.72437 3.47393Z" fill="#F3A130"/>
<path d="M11.9094 11.8789V11.8713C11.9094 11.8484 11.9058 11.8218 11.9058 11.7952C11.8877 11.1943 11.8514 9.78334 10.5935 9.33457C10.5863 9.33076 10.5718 9.32696 10.5645 9.32696C9.2559 8.97707 8.16838 8.18602 8.1575 8.17841C7.97987 8.0491 7.73699 8.09474 7.61374 8.27729C7.49049 8.46365 7.53399 8.71846 7.70799 8.84776C7.75874 8.8858 8.91152 9.72629 10.3543 10.118C11.0286 10.369 11.1047 11.1296 11.1264 11.8218C11.1264 11.8484 11.1264 11.8751 11.1301 11.8979C11.1337 12.1717 11.1156 12.5939 11.0684 12.8373C10.5972 13.1187 8.75564 14.0847 5.95708 14.0847C3.16578 14.0847 1.31337 13.1149 0.842109 12.8335C0.794983 12.5901 0.776858 12.1679 0.780483 11.8941C0.780483 11.8713 0.784108 11.8446 0.784108 11.818C0.805859 11.1258 0.87836 10.3652 1.55625 10.1142C2.99903 9.72629 4.15542 8.87819 4.20255 8.84396C4.38018 8.71465 4.42368 8.45604 4.2968 8.27349C4.17355 8.08714 3.92704 8.0415 3.75304 8.17461C3.74217 8.18221 2.65827 8.97327 1.34599 9.32316C1.33512 9.32696 1.32424 9.33076 1.31699 9.33076C0.0590942 9.78334 0.0192184 11.1943 0.00471807 11.7914C0.00471807 11.818 0.00471807 11.8446 0.001093 11.8675V11.8751C-0.00253207 12.0348 -0.00615716 12.8449 0.149721 13.2518C0.178721 13.3317 0.229472 13.3963 0.301974 13.442C0.388976 13.5028 2.47339 14.8948 5.96433 14.8948C9.45528 14.8948 11.5397 13.499 11.6267 13.442C11.6919 13.3963 11.7499 13.3279 11.7789 13.2518C11.9131 12.8525 11.9131 12.0386 11.9094 11.8789Z" fill="#F3A130"/>
</svg>
