<svg width="15" height="15" viewBox="0 0 15 15" fill="none" xmlns="http://www.w3.org/2000/svg">
<path d="M13.8797 14.1496L10.4758 10.5784C11.3879 9.47899 11.9429 8.04157 11.9429 6.46977C11.9429 3.01264 9.26477 0.207031 5.97339 0.207031C2.67813 0.207031 0 3.01671 0 6.46977C0 9.92284 2.67813 12.7325 5.96951 12.7325C7.46771 12.7325 8.83394 12.1543 9.88579 11.1933L13.2897 14.7644C13.3712 14.85 13.4799 14.8948 13.5847 14.8948C13.6895 14.8948 13.7982 14.854 13.8797 14.7644C14.0427 14.5975 14.0427 14.3165 13.8797 14.1496ZM0.834489 6.46977C0.834489 3.49721 3.14001 1.08658 5.96563 1.08658C8.79901 1.08658 11.0968 3.50536 11.0968 6.46977C11.0968 9.43419 8.79513 11.857 5.96563 11.857C3.14001 11.857 0.834489 9.44234 0.834489 6.46977Z" fill="#8A8A8A"/>
</svg>
