<svg width="12" height="15" viewBox="0 0 12 15" fill="none" xmlns="http://www.w3.org/2000/svg">
<path d="M11.1986 12.9016L10.3971 3.43135C10.3793 3.22115 10.2111 3.0635 10.0143 3.0635H8.36494C8.34347 1.48325 7.1127 0.207031 5.60286 0.207031C4.09302 0.207031 2.86225 1.48325 2.83721 3.0635H1.18784C0.987478 3.0635 0.822898 3.22115 0.805009 3.43135L0.00357782 12.9016C0.00357782 12.9129 0 12.9241 0 12.9391C0 14.0164 0.940966 14.8948 2.10018 14.8948H9.10197C10.2612 14.8948 11.2021 14.0164 11.2021 12.9391C11.2021 12.9241 11.2021 12.9129 11.1986 12.9016ZM5.60286 1.0178C6.68694 1.0178 7.57066 1.92992 7.59571 3.0635H3.61002C3.63149 1.92992 4.51521 1.0178 5.60286 1.0178ZM9.10197 14.0802H2.10018C1.37388 14.0802 0.783542 13.5772 0.772809 12.9542L1.53846 3.87802H2.83363V5.10919C2.83363 5.33441 3.00537 5.51458 3.22004 5.51458C3.43471 5.51458 3.60644 5.33441 3.60644 5.10919V3.87802H7.59213V5.10919C7.59213 5.33441 7.76386 5.51458 7.97853 5.51458C8.1932 5.51458 8.36494 5.33441 8.36494 5.10919V3.87802H9.66011L10.4293 12.9542C10.4186 13.5772 9.82469 14.0802 9.10197 14.0802Z" fill="#8A8A8A"/>
</svg>
