<svg width="16" height="15" viewBox="0 0 16 15" fill="none" xmlns="http://www.w3.org/2000/svg">
<path d="M14.6372 1.57488C13.8017 0.698393 12.7004 0.220311 11.519 0.220311C10.3418 0.220311 9.23209 0.702819 8.40087 1.57488L7.96627 2.03082L7.52323 1.56602C6.68779 0.689539 5.57809 0.207031 4.40087 0.207031C3.22788 0.211458 2.11817 0.689539 1.29117 1.5616C0.455725 2.43808 -0.00419063 3.59787 2.8777e-05 4.83291C2.8777e-05 6.06795 0.464164 7.22774 1.29539 8.0998L7.63716 14.7531C7.72576 14.8461 7.84391 14.8948 7.95783 14.8948C8.07176 14.8948 8.1899 14.8505 8.27851 14.7575L14.6329 8.11751C15.4684 7.24102 15.9241 6.08123 15.9241 4.84619C15.9241 3.61115 15.4684 2.44693 14.6372 1.57488ZM13.9874 7.44023L7.95361 13.7438L1.93674 7.43137C1.27429 6.73638 0.911421 5.81563 0.911421 4.83734C0.911421 3.85461 1.27429 2.93387 1.93252 2.2433C2.59074 1.55274 3.46838 1.17205 4.40087 1.17205C5.33758 1.17205 6.21522 1.55274 6.87766 2.24773L7.64138 3.04896C7.81859 3.23488 8.10551 3.23488 8.28695 3.04896L9.04222 2.25658C9.70467 1.55717 10.5865 1.17647 11.519 1.17647C12.4515 1.17647 13.3291 1.55717 13.9916 2.24773C14.654 2.94272 15.0127 3.86347 15.0127 4.84176C15.0127 5.82449 14.6498 6.74524 13.9874 7.44023Z" fill="#8A8A8A"/>
</svg>
