<svg width="167" height="65" viewBox="0 0 167 65" fill="none" xmlns="http://www.w3.org/2000/svg">
<g clip-path="url(#clip0)">
<path d="M20.9049 0L17.0763 11.8635L0 64.7831H8.09222L26.1257 8.80547C26.1475 8.74041 26.191 8.67534 26.2127 8.61028C26.278 8.41508 26.3432 8.21989 26.4085 8.003C26.4085 7.98132 26.4085 7.98132 26.4302 7.95963C26.5608 7.46079 26.626 6.91859 26.626 6.37638C26.6043 3.07975 24.1244 0.347014 20.9049 0Z" fill="#FFA45B"/>
<path d="M39.7647 30.9709C39.5254 30.2335 38.8511 29.6479 38.068 29.6479H31.455C31.3244 29.6479 31.2157 29.6696 31.0852 29.6696C30.215 29.6696 29.3884 29.7998 28.5835 30.0167C25.7556 30.8408 23.5368 33.0096 22.6449 35.8074V35.8291C22.6449 35.8508 22.6449 35.8508 22.6231 35.8725L22.4491 36.5232L21.9053 38.5619H33.7391L36.0449 45.9142L42.0923 65.0217H50.3368L39.7647 30.9709Z" fill="#FFA45B"/>
<path d="M61.5176 64.718V46.1094H66.5208C70.654 46.1094 72.6988 48.6252 72.6988 52.1387V59.4043C72.6988 63.5251 70.1101 64.718 67.0429 64.718H61.5176ZM71.8504 52.117C71.8504 48.365 69.2835 46.9335 66.7819 46.9335H62.366V63.8938H66.7384C68.7179 63.8938 71.8504 63.6119 71.8504 59.2308V52.117Z" fill="#FFA45B"/>
<path d="M82.7051 64.7178V46.1309H91.6022V46.955H83.5535V53.7435H89.2746L88.9918 54.5893H83.5535V63.9153H91.5369V64.7178H82.7051Z" fill="#FFA45B"/>
<path d="M101.022 59.9899C101.066 61.8118 102.806 64.1758 106.373 64.1758C109.267 64.1758 111.833 63.0263 111.833 59.7514C111.833 54.3076 100.587 56.1294 100.587 50.4254C100.587 48.1915 102.458 45.8491 106.569 45.8491C108.396 45.8491 109.397 46.1311 110.463 46.6516L110.18 47.4974C109.136 46.9769 107.787 46.6733 106.634 46.6733C103.785 46.6733 101.501 47.9746 101.501 50.4904C101.501 55.2185 112.769 53.5919 112.769 59.6863C112.769 62.7444 110.963 64.9999 106.395 64.9999C102.262 64.9999 100.195 62.354 100.108 59.9899H101.022Z" fill="#FFA45B"/>
<path d="M122.448 64.7178V46.9767L120.316 46.9333V46.1309H123.297V64.7178H122.448Z" fill="#FFA45B"/>
<path d="M143.571 64.7178L143.44 62.8092C142.374 64.6961 140.373 64.978 138.959 64.978C136.153 64.978 133.347 63.4599 133.347 59.6861V51.3578C133.347 48.7552 134.26 47.4105 135.674 46.5429C137.415 45.5236 140.221 45.6971 142.309 46.7598L142.048 47.3888C141.178 47.0418 140.155 46.6948 139.003 46.6514C137.371 46.608 134.217 46.9984 134.217 51.3794V59.7511C134.217 62.3754 136.088 64.1539 138.981 64.1539C142.222 64.1539 143.484 62.0935 143.484 59.8596V57.604H140.96L140.634 56.7582H144.31V64.7178H143.571Z" fill="#FFA45B"/>
<path d="M166.172 64.7178L154.73 47.6274V64.7178H153.903V46.1309H154.73L166.172 63.1996V46.1309H166.999V64.7178H166.172Z" fill="#FFA45B"/>
<path d="M69.6971 17.5024H61.4961V20.3219H69.5448V36.1111V38.5401H72.3727V20.3219H78.4419H81.0741V17.5024H72.264H69.6971Z" fill="#FFA45B"/>
<path d="M134.239 17.5024H131.672H131.585L124.298 29.8431L117.032 17.5024H116.967H114.726H114.4H114.356H114.574V36.1111V38.5401H117.184V21.7534L122.993 31.5999H123.014H125.581H125.603L131.324 21.6883V36.1111V38.5401H134.152V17.5024H134.239Z" fill="#FFA45B"/>
<path d="M96.3883 20.0183C96.4318 19.8448 96.4535 19.6713 96.4535 19.4761C96.4535 18.3917 95.6269 17.5025 94.5828 17.394L93.3211 21.2329L87.7305 38.5402H90.3844L96.323 20.1485L96.3883 20.0183Z" fill="#FFA45B"/>
<path d="M100.761 27.4358C100.696 27.1972 100.457 27.0454 100.195 27.0454H97.9114C97.6286 27.0454 97.3458 27.1322 97.0848 27.1972C96.1494 27.4575 95.4315 28.1949 95.127 29.1275L95.0617 29.1709L94.8877 29.648H94.9965H98.7598L99.5211 32.1639L101.501 38.5402H104.198L100.761 27.4358Z" fill="#FFA45B"/>
</g>
<defs>
<clipPath id="clip0">
<rect width="167" height="65" fill="white"/>
</clipPath>
</defs>
</svg>
