<svg width="164" height="64" viewBox="0 0 164 64" fill="none" xmlns="http://www.w3.org/2000/svg">
<g clip-path="url(#clip0)">
<path d="M60.3916 63.701V45.2933H65.3263C69.4066 45.2933 71.4146 47.7918 71.4146 51.2513V58.4478C71.4146 62.5265 68.8725 63.701 65.839 63.701H60.3916ZM69.962 50.995C69.962 47.7918 67.5694 46.6386 65.6041 46.6386H61.8656V62.3984H65.4331C67.3771 62.3984 69.962 61.9713 69.962 58.7254V50.995Z" fill="#787878"/>
<path d="M81.0918 63.701V45.3147H89.8718V46.6814H82.5658V52.8529H87.586L87.0947 54.305H82.5658V62.3984H89.829V63.7224H81.0918V63.701Z" fill="#787878"/>
<path d="M99.5707 59.0244C99.7202 60.7327 101.429 62.5693 104.249 62.5693C106.62 62.5693 108.97 61.6296 108.97 58.7895C108.97 53.643 98.5453 55.5008 98.5453 49.5642C98.5453 47.3647 100.382 45.037 104.463 45.037C106.279 45.037 107.24 45.336 108.308 45.8272C108.308 45.8485 108.18 46.2756 107.859 47.2152C106.834 46.6814 105.659 46.4465 104.527 46.4465C101.899 46.4465 100.083 47.5783 100.083 49.6283C100.083 54.0487 110.572 52.3617 110.572 58.64C110.572 61.651 108.778 63.9787 104.292 63.9787C100.212 63.9787 98.1608 61.352 98.0967 59.003H99.5707V59.0244Z" fill="#787878"/>
<path d="M119.844 63.7011V46.66L118.092 46.6173V45.336H121.318V63.7224H119.844V63.7011Z" fill="#787878"/>
<path d="M140.736 63.701L140.372 62.6333C139.368 63.6156 137.958 63.9787 136.57 63.9787C133.814 63.9787 131.016 62.4838 131.016 58.7468V50.5038C131.016 47.9199 131.913 46.5959 133.301 45.7418C135.01 44.7381 137.788 44.9089 139.838 45.9553L139.411 46.959C138.493 46.6173 137.446 46.4037 136.57 46.4037C135.096 46.4037 132.468 46.7881 132.468 50.2689V58.8108C132.468 61.2239 134.22 62.5692 136.506 62.5692C138.898 62.5692 140.394 61.0531 140.394 58.8322V57.2733H138.663L138.172 55.8212H141.804V63.701H140.736Z" fill="#787878"/>
<path d="M162.525 63.7011L152.528 48.0267V63.7224H151.054V45.336H152.528L162.525 61.0317V45.336H163.999V63.7224H162.525V63.7011Z" fill="#787878"/>
<path d="M67.6335 17.8744H60.3916V20.2234H67.4412V34.4029V36.6665H69.7911V20.2234H75.3667H77.6952V17.8744H69.8979H67.6335Z" fill="#787878"/>
<path d="M124.693 17.8739H122.428H122.343L115.913 28.8075L109.483 17.8739H109.44H107.453H107.154H107.133H107.389V34.4024V36.666H109.739V21.675L114.759 30.4732H114.781H117.045H117.066L122.343 21.6323V34.4024V36.666H124.693V17.8739Z" fill="#787878"/>
<path d="M91.2181 20.1375C91.2395 20.1375 91.2395 20.1375 91.2181 20.1375C91.2608 19.988 91.2822 19.8172 91.2822 19.6677C91.2822 18.7067 90.5559 17.9166 89.6373 17.8312L88.5264 21.2906L83.5703 36.6874H85.9202L91.1754 20.3297L91.2181 20.1375Z" fill="#787878"/>
<path d="M95.1062 26.672C95.0422 26.4585 94.8499 26.1808 94.6149 26.1808H92.5855C92.3291 26.1808 92.0941 26.3303 91.8591 26.4157C91.0474 26.6507 90.3851 27.3554 90.1288 28.1668L90.0861 28.1455L89.9365 28.5299H90.0433H93.3545L94.0168 30.8789L95.7685 36.6447H98.1611L95.1062 26.672Z" fill="#787878"/>
<path d="M20.5294 0L16.7696 11.681L0 63.7865H7.94685L25.6564 8.67C25.6777 8.60594 25.7205 8.54187 25.7418 8.47781C25.8059 8.28562 25.87 8.09343 25.9341 7.87988C25.9341 7.85853 25.9341 7.85853 25.9555 7.83717C26.0836 7.34601 26.1477 6.81215 26.1477 6.27828C26.1264 3.03237 23.691 0.341675 20.5294 0Z" fill="#F3A130"/>
<path d="M39.0503 30.4945C38.8153 29.7684 38.1531 29.1919 37.3841 29.1919H30.8899C30.7617 29.1919 30.6549 29.2132 30.5267 29.2132C29.6722 29.2132 28.8604 29.3413 28.07 29.5549C25.2929 30.3664 23.1139 32.5018 22.238 35.2566V35.2779C22.238 35.2993 22.238 35.2993 22.2167 35.3207L22.0458 35.9613L21.5117 37.9686H33.1329L35.3973 45.2079L41.3361 64.0214H49.4325L39.0503 30.4945Z" fill="#F3A130"/>
</g>
<defs>
<clipPath id="clip0">
<rect width="164" height="64" fill="white"/>
</clipPath>
</defs>
</svg>
