<svg width="30" height="30" viewBox="0 0 30 30" fill="none" xmlns="http://www.w3.org/2000/svg">
<path d="M15.52 4.27002C9.47021 4.27002 6.41602 8.4668 6.41602 11.9751C6.41602 14.0991 7.24365 15.9814 9.02344 16.6846C9.09668 16.7139 9.16992 16.7285 9.24316 16.7285C9.44092 16.7285 9.60205 16.604 9.66064 16.377C9.71924 16.1646 9.8584 15.6152 9.92432 15.3882C10.0122 15.0806 9.97559 14.9707 9.74121 14.6997C9.22852 14.1138 8.89893 13.3521 8.89893 12.2827C8.89893 9.1626 11.3086 6.37939 15.1758 6.37939C18.5962 6.37939 20.4785 8.40088 20.4785 11.1035C20.4785 14.6558 18.8525 17.6587 16.4429 17.6587C15.1099 17.6587 14.1138 16.5894 14.4287 15.2856C14.8096 13.7256 15.5566 12.041 15.5566 10.9131C15.5566 9.90234 14.9927 9.06006 13.8354 9.06006C12.4731 9.06006 11.3745 10.4224 11.3745 12.2534C11.3745 13.418 11.7847 14.2017 11.7847 14.2017C11.7847 14.2017 10.3931 19.9146 10.144 20.918C9.65332 22.9102 10.0708 25.3564 10.1074 25.6055C10.1221 25.6934 10.1953 25.7446 10.2686 25.7446C10.3198 25.7446 10.3711 25.7227 10.4077 25.6787C10.5322 25.5249 12.1582 23.584 12.7075 21.6431C12.8687 21.0938 13.6011 18.252 13.6011 18.252C14.0405 19.0723 15.3369 19.79 16.7139 19.79C20.8081 19.79 23.584 16.1792 23.584 11.3452C23.584 7.67578 20.3833 4.27002 15.52 4.27002Z" fill="white"/>
<path d="M4.39453 30H25.6055C28.0298 30 30 28.0298 30 25.6055V4.39453C30 1.97021 28.0298 0 25.6055 0H4.39453C1.97021 0 0 1.97021 0 4.39453V25.6055C0 28.0298 1.97021 30 4.39453 30ZM1.75781 4.39453C1.75781 2.93701 2.93701 1.75781 4.39453 1.75781H25.6055C27.0557 1.75781 28.2422 2.93701 28.2422 4.39453V25.6055C28.2422 27.0557 27.0557 28.2422 25.6055 28.2422H4.39453C2.93701 28.2422 1.75781 27.0557 1.75781 25.6055V4.39453Z" fill="white"/>
</svg>
