<svg width="30" height="30" viewBox="0 0 30 30" fill="none" xmlns="http://www.w3.org/2000/svg">
<path d="M21.1011 14.0407L11.2134 8.54754C10.8765 8.35711 10.459 8.36444 10.1221 8.56219C9.78516 8.75994 9.58008 9.11883 9.58008 9.50701V20.6764C9.58008 21.0719 9.79248 21.4308 10.1294 21.6286C10.4736 21.8263 10.8911 21.819 11.228 21.6286L21.1157 15.9523C21.4599 15.7546 21.6723 15.3884 21.665 14.9928C21.665 14.5973 21.4453 14.2311 21.1011 14.0407ZM11.7773 18.7795V11.3747L18.3325 15.0148L11.7773 18.7795Z" fill="white"/>
<path d="M4.39453 30H25.6055C28.0298 30 30 28.0298 30 25.6055V4.39453C30 1.97021 28.0298 0 25.6055 0H4.39453C1.97021 0 0 1.97021 0 4.39453V25.6055C0 28.0298 1.97021 30 4.39453 30ZM1.75781 4.39453C1.75781 2.93701 2.93701 1.75781 4.39453 1.75781H25.6055C27.0557 1.75781 28.2422 2.93701 28.2422 4.39453V25.6055C28.2422 27.0557 27.0557 28.2422 25.6055 28.2422H4.39453C2.93701 28.2422 1.75781 27.0557 1.75781 25.6055V4.39453Z" fill="white"/>
</svg>
