<svg width="30" height="30" viewBox="0 0 30 30" fill="none" xmlns="http://www.w3.org/2000/svg">
<path d="M4.39453 30H25.6055C28.0298 30 30 28.0298 30 25.6055V4.39453C30 1.97021 28.0298 0 25.6055 0H4.39453C1.97021 0 0 1.97021 0 4.39453V25.6055C0 28.0298 1.97021 30 4.39453 30ZM1.75781 4.39453C1.75781 2.93701 2.93701 1.75781 4.39453 1.75781H25.6055C27.0557 1.75781 28.2422 2.93701 28.2422 4.39453V25.6055C28.2422 27.0557 27.0557 28.2422 25.6055 28.2422H4.39453C2.93701 28.2422 1.75781 27.0557 1.75781 25.6055V4.39453Z" fill="white"/>
<path d="M15 22.9102C19.3652 22.9102 22.9102 19.3652 22.9102 15C22.9102 10.6348 19.3652 7.08984 15 7.08984C10.6348 7.08984 7.08984 10.6348 7.08984 15C7.08984 19.3652 10.6348 22.9102 15 22.9102ZM15 8.84766C18.3911 8.84766 21.1524 11.6089 21.1524 15C21.1524 18.3911 18.3911 21.1524 15 21.1524C11.6089 21.1524 8.84766 18.3911 8.84766 15C8.84766 11.6089 11.6089 8.84766 15 8.84766Z" fill="white"/>
<path d="M23.7891 8.84766C25.2393 8.84766 26.4258 7.66113 26.4258 6.21094C26.4258 4.75342 25.2393 3.57422 23.7891 3.57422C22.3315 3.57422 21.1523 4.75342 21.1523 6.21094C21.1523 7.66113 22.3315 8.84766 23.7891 8.84766ZM23.7891 5.33203C24.2725 5.33203 24.668 5.72754 24.668 6.21094C24.668 6.69434 24.2725 7.08984 23.7891 7.08984C23.3057 7.08984 22.9102 6.69434 22.9102 6.21094C22.9102 5.72754 23.3057 5.33203 23.7891 5.33203Z" fill="white"/>
</svg>
