<svg width="30" height="30" viewBox="0 0 30 30" fill="none" xmlns="http://www.w3.org/2000/svg">
<path d="M25.6055 0H4.39453C1.96875 0 0 1.96875 0 4.39453V25.6055C0 28.0312 1.96875 30 4.39453 30H25.6055C28.0312 30 30 28.0312 30 25.6055V4.39453C30 1.96875 28.0312 0 25.6055 0ZM22.4238 14.9414L21.8965 17.5781H18.5156V28.2422H15.8789V17.5781H12.6562V14.9414H15.8789V9.66797C15.8789 7.72852 17.4551 6.15234 19.3945 6.15234H22.6172V8.78906H18.5156V14.9414H22.4238ZM28.2422 25.6055C28.2422 27.0586 27.0586 28.2422 25.6055 28.2422H20.2734V19.3359H23.3379L24.5684 13.1836H20.2734V10.5469H24.375V4.39453H19.3945C16.4883 4.39453 14.1211 6.76172 14.1211 9.66797V13.1836H10.8984V19.3359H14.1211V28.2422H4.39453C2.94141 28.2422 1.75781 27.0586 1.75781 25.6055V4.39453C1.75781 2.94141 2.94141 1.75781 4.39453 1.75781H25.6055C27.0586 1.75781 28.2422 2.94141 28.2422 4.39453V25.6055Z" fill="white"/>
</svg>
