<svg width="27" height="27" viewBox="0 0 27 27" fill="none" xmlns="http://www.w3.org/2000/svg">
<path d="M26.1974 8.32061C26.1153 8.1023 25.9024 7.95328 25.669 7.95267L5.12894 7.69924C4.90745 7.69818 4.71209 7.81994 4.60751 8.01205C4.50778 8.20635 4.52611 8.43663 4.6518 8.61041L9.0922 14.7056L9.90341 22.3515C9.92302 22.5531 10.0514 22.734 10.2355 22.8174L10.2646 22.8306C10.4677 22.9109 10.6922 22.8666 10.858 22.7198L26.0454 8.95267C26.2226 8.7935 26.2822 8.54597 26.1974 8.32061ZM22.5779 9.06372L9.85776 13.8025L6.26151 8.86084L22.5779 9.06372ZM10.9319 21.1002L10.2725 14.8724L23.063 10.1072L10.9319 21.1002Z" fill="#8A8A8A"/>
</svg>
